<svg xmlns="http://www.w3.org/2000/svg" width="25" height="25" viewBox="0 0 25 25">
  <path id="Icon_awesome-expand" data-name="Icon awesome-expand" d="M0,10.509V3.589A1.336,1.336,0,0,1,1.339,2.25h6.92a.672.672,0,0,1,.67.67V5.152a.672.672,0,0,1-.67.67H3.571v4.687a.672.672,0,0,1-.67.67H.67A.672.672,0,0,1,0,10.509ZM16.071,2.92V5.152a.672.672,0,0,0,.67.67h4.688v4.687a.672.672,0,0,0,.67.67H24.33a.672.672,0,0,0,.67-.67V3.589A1.336,1.336,0,0,0,23.661,2.25h-6.92A.672.672,0,0,0,16.071,2.92Zm8.259,15.4H22.1a.672.672,0,0,0-.67.67v4.688H16.741a.672.672,0,0,0-.67.67V26.58a.672.672,0,0,0,.67.67h6.92A1.336,1.336,0,0,0,25,25.911v-6.92A.672.672,0,0,0,24.33,18.321ZM8.929,26.58V24.348a.672.672,0,0,0-.67-.67H3.571V18.991a.672.672,0,0,0-.67-.67H.67a.672.672,0,0,0-.67.67v6.92A1.336,1.336,0,0,0,1.339,27.25h6.92A.672.672,0,0,0,8.929,26.58Z" transform="translate(0 -2.25)" fill="#355468"/>
</svg>
