<?xml version="1.0" standalone="no"?>
<!DOCTYPE svg PUBLIC "-//W3C//DTD SVG 20010904//EN"
 "http://www.w3.org/TR/2001/REC-SVG-20010904/DTD/svg10.dtd">
<svg version="1.0" xmlns="http://www.w3.org/2000/svg"
 width="1076.000000pt" height="1074.000000pt" viewBox="0 0 1076.000000 1074.000000"
 preserveAspectRatio="xMidYMid meet">
<metadata>
Created by potrace 1.16, written by Peter Selinger 2001-2019
</metadata>
<g transform="translate(0.000000,1074.000000) scale(0.100000,-0.100000)"
fill="#000000" stroke="none">
<path d="M8461 7683 c-1 -7 -11 -13 -24 -13 -34 0 -98 -57 -368 -328 -277
-279 -382 -403 -372 -441 3 -11 -2 -21 -11 -24 -9 -4 -16 -1 -17 6 0 7 -7 -4
-14 -23 -7 -19 -14 -68 -14 -107 -1 -59 -5 -77 -21 -93 -11 -11 -24 -20 -30
-20 -6 0 -10 -46 -10 -119 l0 -120 -27 -3 -28 -3 -3 -152 c-2 -144 -4 -153
-22 -153 -29 0 -40 -31 -40 -109 l0 -71 -64 0 c-63 0 -65 1 -68 28 l-3 27
-115 3 -116 3 -11 29 -11 29 -128 3 c-71 2 -144 -1 -163 -6 -26 -6 -73 -46
-183 -154 -81 -81 -144 -150 -140 -154 4 -4 37 -12 73 -17 37 -6 85 -18 108
-26 24 -8 81 -19 127 -25 47 -6 107 -19 133 -30 27 -10 86 -24 132 -30 46 -6
103 -20 127 -30 23 -10 79 -24 125 -31 45 -6 99 -20 119 -30 21 -11 43 -19 51
-19 7 0 23 -10 35 -23 19 -21 22 -35 22 -118 0 -52 7 -132 15 -178 8 -46 19
-152 25 -235 12 -174 16 -206 36 -261 8 -22 20 -85 28 -141 7 -55 21 -115 31
-133 9 -19 23 -72 31 -119 7 -47 20 -93 29 -102 9 -9 22 -50 31 -91 8 -41 22
-81 29 -89 8 -9 22 -45 31 -80 9 -35 25 -76 36 -90 38 -53 21 -83 -130 -233
-121 -120 -166 -160 -262 -237 -58 -46 -87 -70 -126 -104 -23 -20 -58 -43 -78
-51 -20 -8 -36 -19 -36 -23 0 -5 -12 -15 -27 -23 -16 -7 -43 -26 -61 -41 -18
-16 -39 -28 -46 -28 -7 0 -30 -13 -51 -30 -21 -16 -43 -30 -50 -30 -7 0 -32
-13 -56 -30 -24 -16 -51 -30 -60 -30 -9 0 -34 -12 -55 -26 -21 -15 -56 -33
-78 -41 -22 -7 -47 -20 -56 -27 -8 -8 -35 -19 -60 -26 -25 -6 -58 -20 -75 -30
-16 -10 -58 -25 -93 -34 -34 -9 -72 -22 -85 -31 -13 -8 -60 -22 -106 -30 -46
-9 -94 -23 -106 -31 -12 -8 -74 -21 -138 -29 -64 -9 -136 -23 -159 -31 -114
-41 -851 -41 -970 0 -26 9 -96 23 -157 31 -61 8 -125 22 -142 30 -17 9 -65 23
-107 31 -42 8 -86 21 -99 29 -12 8 -48 21 -80 29 -32 7 -80 25 -107 40 -27 14
-59 26 -71 26 -12 0 -38 11 -58 25 -20 13 -54 29 -76 35 -21 5 -44 17 -51 25
-6 7 -33 22 -58 31 -26 10 -56 26 -68 36 -11 10 -29 18 -40 18 -11 0 -65 -47
-130 -113 -147 -149 -180 -197 -135 -197 14 0 21 -8 23 -27 3 -26 6 -28 60
-31 53 -3 57 -5 60 -30 2 -20 9 -28 28 -30 76 -8 90 -13 90 -33 0 -23 10 -28
76 -37 40 -6 50 -11 52 -29 3 -19 12 -23 63 -29 42 -5 63 -12 69 -24 13 -24
62 -40 119 -40 38 0 48 -4 56 -22 12 -28 41 -36 131 -37 65 -1 73 -3 97 -31
l27 -30 115 0 c109 0 115 -1 115 -20 0 -13 10 -24 26 -30 29 -11 1274 -12
1314 -1 14 4 29 17 35 29 9 21 16 22 113 22 110 0 142 9 142 40 0 18 7 20 80
20 87 0 150 19 150 44 0 13 13 16 61 16 58 0 60 1 70 30 10 28 15 30 62 31 82
2 112 11 115 36 3 18 12 22 62 28 53 6 60 10 69 36 9 26 14 29 53 29 47 0 68
13 68 42 0 15 9 18 51 18 47 0 52 2 62 30 9 23 17 30 39 30 24 0 28 4 28 30 0
28 1 29 58 32 54 3 57 4 60 30 3 24 8 28 33 28 16 0 29 5 29 10 0 21 41 49 77
52 33 3 38 7 41 31 3 22 8 27 32 27 23 0 30 5 35 29 5 23 13 31 33 33 21 2 28
9 30 31 3 21 9 27 27 27 38 0 77 19 82 40 3 11 17 22 34 25 20 5 31 14 35 31
4 14 16 27 30 30 14 4 27 16 30 29 3 14 18 28 35 34 22 7 29 16 29 35 0 19 6
25 28 28 21 2 28 9 30 30 3 21 9 27 30 30 21 2 28 9 30 31 2 18 9 27 21 27 22
0 41 19 41 42 0 10 6 18 14 18 28 0 46 30 46 76 0 42 1 44 30 44 27 0 30 3 30
30 0 27 3 30 30 30 27 0 30 3 30 29 0 25 4 30 28 33 25 3 28 8 36 61 8 51 12
57 33 57 18 0 25 7 29 29 4 20 13 31 27 33 15 2 25 14 32 40 5 20 22 50 38 65
16 17 27 40 27 56 0 20 5 27 19 27 26 0 31 9 38 70 5 43 9 50 28 50 27 0 35
17 35 75 0 40 2 44 28 47 25 3 27 6 30 60 3 53 5 57 30 60 25 3 27 6 30 61 2
40 7 57 17 57 29 0 45 31 45 86 0 39 4 54 14 54 25 0 46 47 46 106 0 49 4 59
30 84 28 26 30 33 30 95 0 58 3 68 19 72 29 7 41 55 41 159 0 81 3 97 20 114
11 11 24 20 30 20 6 0 11 62 12 152 l3 152 25 6 c25 6 25 7 31 140 9 187 10
836 2 1065 l-6 190 -29 27 c-26 24 -28 32 -28 101 0 92 -5 107 -36 107 -22 0
-24 4 -24 43 0 48 -23 89 -45 81 -10 -4 -15 0 -15 14 0 11 6 22 13 25 6 3 -7
8 -30 12 -36 6 -42 11 -45 34 -2 20 -9 27 -30 29 -16 2 -28 8 -28 13 0 24 -42
49 -84 49 -35 0 -45 4 -49 20 -8 31 -49 40 -182 40 -89 0 -125 3 -128 13 -4
10 -6 10 -6 0z m149 -523 c0 -27 3 -30 30 -30 29 0 30 -2 30 -44 0 -60 8 -76
36 -76 l24 0 0 -614 0 -615 -30 -33 c-30 -32 -30 -33 -30 -151 0 -97 -3 -119
-15 -124 -30 -11 -45 -59 -45 -148 0 -78 -2 -85 -20 -85 -29 0 -40 -30 -40
-109 0 -62 -2 -71 -18 -71 -33 0 -42 -22 -42 -101 0 -77 0 -78 -27 -81 -26 -3
-28 -6 -31 -59 -3 -54 -4 -57 -32 -63 -29 -5 -30 -7 -30 -66 0 -57 -1 -60 -25
-60 -26 0 -32 -13 -37 -80 -3 -30 -7 -35 -29 -38 -24 -3 -27 -8 -33 -63 -6
-53 -9 -59 -30 -59 -25 0 -36 -29 -36 -90 0 -23 -5 -28 -30 -32 -26 -4 -29 -2
-32 26 -2 25 -8 32 -30 34 l-28 3 0 89 c0 100 -11 139 -40 147 -19 5 -20 14
-20 124 0 127 -9 168 -40 176 -20 5 -20 15 -20 560 0 540 1 555 19 560 30 8
41 56 41 184 0 94 3 119 14 119 30 0 41 33 46 134 5 91 7 101 25 105 30 5 35
19 35 104 0 69 2 80 19 84 27 7 41 46 41 113 0 57 1 59 28 62 26 3 27 6 30 62
3 50 7 63 33 87 20 19 29 37 29 58 0 28 3 31 30 31 27 0 30 3 30 30 l0 30 125
0 125 0 0 -30z"/>
<path d="M1937 7640 c-10 -27 -15 -30 -57 -30 -49 0 -70 -13 -70 -42 0 -13 -8
-18 -30 -18 -27 0 -30 -3 -30 -30 0 -26 -4 -30 -27 -30 -28 0 -71 -20 -45 -20
6 0 12 -9 12 -21 0 -15 -5 -19 -15 -15 -26 9 -45 -22 -45 -75 0 -45 -2 -49
-24 -49 -31 0 -36 -15 -36 -106 0 -64 -2 -74 -17 -74 -10 -1 -31 -8 -48 -16
-16 -8 -22 -12 -12 -9 16 4 17 -36 17 -736 l0 -741 30 -11 30 -11 0 -136 c0
-140 5 -160 42 -160 15 0 18 -13 20 -117 l3 -118 27 -3 c27 -3 27 -4 30 -90 3
-83 4 -86 28 -92 24 -5 25 -10 30 -88 5 -82 14 -101 47 -102 8 0 13 -21 15
-57 3 -55 5 -58 30 -61 25 -3 27 -7 30 -60 3 -54 5 -57 31 -60 26 -3 27 -5 27
-63 0 -43 4 -59 13 -59 25 0 47 -36 47 -74 0 -32 4 -38 30 -47 27 -10 30 -15
30 -52 0 -49 7 -62 36 -71 16 -5 23 -19 30 -59 7 -43 13 -53 32 -55 14 -2 22
-10 22 -22 0 -34 12 -50 36 -50 13 0 24 -6 24 -12 0 -39 22 -86 45 -96 19 -9
25 -19 25 -42 0 -27 3 -30 30 -30 27 0 30 -3 30 -30 0 -27 3 -30 30 -30 28 0
30 -2 30 -40 0 -38 26 -80 49 -80 5 0 11 -12 13 -27 2 -22 9 -29 30 -31 21 -3
27 -9 30 -30 2 -21 9 -28 31 -30 20 -3 27 -9 27 -25 0 -12 4 -17 8 -12 4 6 23
18 42 29 40 21 260 235 260 252 0 6 -9 19 -20 29 -27 24 -27 88 0 125 11 15
25 52 31 81 6 30 20 68 30 85 10 17 25 60 32 95 8 36 21 76 31 90 9 15 23 66
32 114 8 49 22 101 30 116 7 15 20 74 28 132 8 57 22 123 30 148 16 45 30 179
41 374 10 186 27 338 41 372 8 22 22 34 41 39 15 4 44 15 63 24 19 10 72 23
117 29 46 7 102 21 125 31 24 10 81 24 127 30 46 6 105 20 132 30 26 11 84 24
129 29 45 6 110 19 145 30 35 11 119 25 185 31 67 5 155 19 196 30 53 14 138
22 301 30 154 8 234 16 252 25 61 32 391 385 391 417 0 10 -377 11 -484 2 -69
-6 -77 -9 -82 -30 l-6 -24 -227 -1 c-274 -1 -315 -5 -319 -36 -3 -22 -7 -23
-115 -23 -62 0 -142 -3 -179 -6 -64 -6 -67 -8 -73 -35 l-7 -29 -132 0 c-136 0
-156 -5 -156 -42 0 -15 -13 -18 -122 -20 l-123 -3 -3 -27 c-3 -27 -5 -28 -67
-28 l-64 0 -3 57 c-3 52 -5 58 -28 63 l-25 6 -3 173 -2 173 -30 11 -29 11 -3
116 -3 115 -27 3 -28 3 0 90 0 89 -30 0 -30 0 0 89 0 89 -30 6 -30 6 0 72 c0
80 -5 94 -35 99 -17 4 -21 14 -25 64 -5 57 -7 60 -32 63 -26 3 -28 6 -28 51 0
49 -12 71 -41 71 -12 0 -19 9 -21 28 -2 21 -9 28 -30 30 -21 3 -27 9 -30 30
-2 22 -9 28 -35 30 -27 3 -33 8 -33 27 0 27 -17 35 -75 35 -40 0 -44 2 -47 28
l-3 27 -288 3 -289 2 -11 -30z m423 -480 c0 -27 3 -30 30 -30 29 0 30 -1 30
-51 0 -47 2 -52 30 -62 29 -11 30 -14 30 -69 0 -58 0 -58 30 -58 l30 0 0 -74
c0 -91 5 -106 36 -106 24 0 24 -2 24 -90 l0 -90 30 -6 30 -6 0 -100 c0 -106 9
-138 40 -138 18 0 20 -9 22 -147 l3 -147 25 -6 25 -6 3 -531 2 -531 -27 -22
c-28 -22 -28 -23 -33 -168 -5 -137 -6 -147 -25 -151 -31 -5 -35 -19 -35 -133
l0 -107 -27 -3 c-23 -2 -29 -9 -31 -34 -3 -27 -6 -30 -31 -26 -26 3 -29 9 -37
60 -7 47 -13 58 -30 60 -17 2 -23 13 -30 55 -7 42 -14 54 -36 65 -20 10 -28
20 -28 40 0 18 -10 36 -30 52 -25 21 -30 32 -30 68 0 53 -14 82 -40 82 -18 0
-20 7 -20 60 0 59 -1 61 -30 67 -29 5 -30 7 -30 61 0 48 -4 58 -30 84 -27 26
-30 34 -30 93 0 37 -4 65 -10 65 -5 0 -19 9 -30 20 -16 16 -20 36 -22 117 -3
94 -4 97 -28 103 -25 6 -25 8 -28 115 -2 111 -17 167 -46 178 -12 5 -15 58
-18 299 -2 193 -7 299 -14 312 -9 14 -8 33 2 75 9 40 13 137 14 334 l0 277 25
10 c20 7 25 18 31 59 6 44 9 50 33 53 20 2 27 9 29 31 l3 27 125 0 124 0 0
-30z"/>
</g>
</svg>
